HIERARCHY
ROOT Pelvis
{
	OFFSET -0.217368 -24.078917 2.858379
	CHANNELS 6 Xposition Yposition Zposition Zrotation Yrotation Xrotation 
	JOINT Left_hip
	{
		OFFSET 5.858135 -8.228005 -1.766408
		CHANNELS 3 Zrotation Yrotation Xrotation
		JOINT Left_knee
		{
			OFFSET 4.345143 -38.646942 0.803700
			CHANNELS 3 Zrotation Yrotation Xrotation
			JOINT Left_ankle
			{
				OFFSET -1.479033 -42.687447 -3.742800
				CHANNELS 3 Zrotation Yrotation Xrotation
				JOINT Left_foot
				{
					OFFSET 4.105436 -6.028605 12.204244
					CHANNELS 3 Zrotation Yrotation Xrotation
					End Site
					{
						OFFSET 0.000000 0.000000 0.000000
					}
				}
			}
		}
	}
	JOINT Right_hip
	{
		OFFSET -6.030973 -9.051328 -1.354253
		CHANNELS 3 Zrotation Yrotation Xrotation
		JOINT Right_knee
		{
			OFFSET -4.325663 -38.368790 -0.484304
			CHANNELS 3 Zrotation Yrotation Xrotation
			JOINT Right_ankle
			{
				OFFSET 1.905555 -42.004566 -3.456167
				CHANNELS 3 Zrotation Yrotation Xrotation
				JOINT Right_foot
				{
					OFFSET -3.483987 -6.210554 13.032330
					CHANNELS 3 Zrotation Yrotation Xrotation
					End Site
					{
						OFFSET 0.000000 0.000000 0.000000
					}
				}
			}
		}
	}
	JOINT Spine1
	{
		OFFSET 0.443945 12.440353 -3.838522
		CHANNELS 3 Zrotation Yrotation Xrotation
		JOINT Spine2
		{
			OFFSET 0.448844 13.795640 2.682033
			CHANNELS 3 Zrotation Yrotation Xrotation
			JOINT Spine3
			{
				OFFSET -0.226460 5.603239 0.285504
				CHANNELS 3 Zrotation Yrotation Xrotation
				JOINT Neck
				{
					OFFSET -1.339018 21.163553 -3.346758
					CHANNELS 3 Zrotation Yrotation Xrotation
					JOINT Head
					{
						OFFSET 1.011321 8.893734 5.040987
						CHANNELS 3 Zrotation Yrotation Xrotation
						End Site
						{
							OFFSET 0.000000 0.000000 0.000000
						}
					}
				}
				JOINT Left_collar
				{
					OFFSET 7.170247 11.399971 -1.889817
					CHANNELS 3 Zrotation Yrotation Xrotation
					JOINT Left_shoulder
					{
						OFFSET 12.292140 4.520507 -1.904600
						CHANNELS 3 Zrotation Yrotation Xrotation
						JOINT Left_elbow
						{
							OFFSET 25.533188 -1.564902 -2.294648
							CHANNELS 3 Zrotation Yrotation Xrotation
							JOINT Left_wrist
							{
								OFFSET 26.570929 1.269810 -0.737473
								CHANNELS 3 Zrotation Yrotation Xrotation
								JOINT Left_palm
								{
									OFFSET 8.669054 -1.063602 -1.559429
									CHANNELS 3 Zrotation Yrotation Xrotation
									End Site
									{
										OFFSET 0.000000 0.000000 0.000000
									}
								}
							}
						}
					}
				}
				JOINT Right_collar
				{
					OFFSET -8.295364 11.247234 -2.370738
					CHANNELS 3 Zrotation Yrotation Xrotation
					JOINT Right_shoulder
					{
						OFFSET -11.322830 4.685326 -0.847207
						CHANNELS 3 Zrotation Yrotation Xrotation
						JOINT Right_elbow
						{
							OFFSET -26.012751 -1.436928 -3.126872
							CHANNELS 3 Zrotation Yrotation Xrotation
							JOINT Right_wrist
							{
								OFFSET -26.910841 0.679372 -0.602677
								CHANNELS 3 Zrotation Yrotation Xrotation
								JOINT Right_palm
								{
									OFFSET -8.875370 -0.865157 -1.010708
									CHANNELS 3 Zrotation Yrotation Xrotation
									End Site
									{
										OFFSET 0.000000 0.000000 0.000000
									}
								}
							}
						}
					}
				}
			}
		}
	}
}
MOTION
Frames: 6
Frame Time: 0.016667
-0.217368 65.984940 2.858379 1.805115 -0.535016 69.221013 16.600443 4.183208 -71.305269 -2.144163 0.373341 -9.128377 6.773614 16.656157 26.695881 0.000000 0.000000 0.000000 -18.770903 -5.046125 -74.331179 0.710727 -0.271334 -5.895695 -4.329737 -13.138386 12.031147 0.000000 0.000000 0.000000 4.868807 -6.731859 69.795916 -4.855287 1.776214 -25.372522 -5.815471 -6.398925 20.266877 0.712676 0.297346 -10.186432 0.000000 0.000000 0.000000 29.168778 -38.287034 5.595724 28.195270 -20.831387 -3.386940 18.862587 3.080566 0.489213 0.000000 0.000000 0.000000 0.000000 0.000000 0.000000 -26.544282 33.236874 5.803205 -34.956059 27.981857 -7.721939 -16.314619 -3.929843 0.799601 0.000000 0.000000 0.000000 0.000000 0.000000 0.000000 
-0.204885 66.027740 2.859539 0.784132 0.052438 68.511047 17.416250 4.548397 -68.993432 -3.015762 0.398105 -8.990678 6.776287 16.493610 24.320932 0.000000 0.000000 0.000000 -18.316311 -4.844858 -75.717083 1.070377 -0.167408 -1.784199 -3.877631 -14.080133 24.718754 0.000000 0.000000 0.000000 1.947855 -4.359117 66.326091 -3.106823 1.416411 -15.763515 -4.324857 -3.816803 14.558920 0.082756 0.360576 -5.439126 0.000000 0.000000 0.000000 34.540061 -39.336437 4.186559 26.783327 -19.532447 -2.863578 21.739243 -1.274177 -0.092067 0.000000 0.000000 0.000000 0.000000 0.000000 0.000000 -25.943320 35.763958 6.237222 -33.911926 27.606488 -7.373345 -13.323757 -4.111015 0.645474 0.000000 0.000000 0.000000 0.000000 0.000000 0.000000 
-0.227922 65.380447 2.734142 1.510053 2.229250 66.478913 15.460961 3.215763 -68.665744 -2.383027 0.358780 -7.461266 6.753524 16.266501 21.643263 0.000000 0.000000 0.000000 -19.087895 -4.983345 -71.404535 1.819906 -0.310006 -4.976240 -5.318288 -16.016302 23.423382 0.000000 0.000000 0.000000 3.224561 -4.809970 62.196282 -3.864779 1.724974 -10.250403 -0.000894 -2.958281 10.173280 0.214695 0.203929 -4.637059 0.000000 0.000000 0.000000 28.961371 -43.370172 6.101874 23.276338 -23.409499 -3.676939 22.677204 1.631839 0.376197 0.000000 0.000000 0.000000 0.000000 0.000000 0.000000 -26.153822 36.019556 6.215464 -29.392150 29.366146 -7.161818 -16.768468 -1.537481 0.547474 0.000000 0.000000 0.000000 0.000000 0.000000 0.000000 
-0.206044 65.343842 2.619910 1.416608 2.338318 65.781837 15.915596 3.463283 -67.856002 -2.703865 0.375365 -7.698805 6.444150 15.882507 21.815495 0.000000 0.000000 0.000000 -20.047160 -5.507869 -70.182812 1.073211 -0.314975 -6.696868 -5.755149 -16.719395 24.548250 0.000000 0.000000 0.000000 2.122046 -3.842436 58.589774 -3.410332 1.617702 -2.292418 1.328246 -2.120840 5.071419 0.870664 -0.304525 -4.266104 0.000000 0.000000 0.000000 30.344533 -46.444766 5.891658 24.417755 -19.892289 -2.793299 18.054511 -0.037546 0.082584 0.000000 0.000000 0.000000 0.000000 0.000000 0.000000 -27.540856 38.344442 6.114086 -28.458256 27.085309 -6.197450 -15.294807 -1.187900 0.458721 0.000000 0.000000 0.000000 0.000000 0.000000 0.000000 
-0.162435 65.317657 2.393854 0.907782 2.895941 62.567537 15.339146 2.925388 -65.204330 -2.458960 0.364795 -7.677392 6.545899 15.899427 20.440425 0.000000 0.000000 0.000000 -18.958186 -4.431182 -66.466015 0.856036 -0.345539 -7.981014 -5.781857 -16.812046 25.409661 0.000000 0.000000 0.000000 1.408946 -3.472533 59.139300 -3.477529 1.648070 -2.318003 2.374640 -1.666020 4.624044 -0.754964 0.857741 -3.885099 0.000000 0.000000 0.000000 26.902961 -46.056272 7.073300 26.087918 -23.253976 -3.942320 15.659199 -0.837188 -0.008965 0.000000 0.000000 0.000000 0.000000 0.000000 0.000000 -24.639775 39.269161 7.033618 -27.540572 28.863430 -6.626082 -16.658373 0.559944 0.301807 0.000000 0.000000 0.000000 0.000000 0.000000 0.000000 
-0.167091 65.394226 2.119810 0.986985 2.604694 61.511072 15.162673 2.762292 -64.271618 -1.990875 0.355544 -8.319602 5.944449 15.137475 20.770711 0.000000 0.000000 0.000000 -19.294685 -4.542938 -65.427019 0.295550 -0.346951 -8.570065 -5.002419 -15.767194 25.838068 0.000000 0.000000 0.000000 2.416299 -3.779557 55.724057 -4.045014 1.957322 1.084788 2.481012 -2.632595 1.306424 -0.874319 1.090095 -6.172387 0.000000 0.000000 0.000000 23.498973 -46.643608 8.367916 24.159624 -26.121718 -4.559996 14.650086 -2.264271 -0.137758 0.000000 0.000000 0.000000 0.000000 0.000000 0.000000 -21.464275 41.467692 8.315768 -25.014237 30.457990 -6.633664 -16.755542 1.165601 0.233125 0.000000 0.000000 0.000000 0.000000 0.000000 0.000000 
